<?xml version="1.0" encoding="utf-8"?>
<!-- Generator: Adobe Illustrator 25.2.0, SVG Export Plug-In . SVG Version: 6.00 Build 0)  -->
<svg version="1.1" id="Layer_1" xmlns="http://www.w3.org/2000/svg" xmlns:xlink="http://www.w3.org/1999/xlink" x="0px" y="0px"
	 viewBox="0 0 80 80" style="enable-background:new 0 0 80 80;" xml:space="preserve">
<style type="text/css">
	.st0{fill:#231F20;}
	.st1{fill:#FFFFFF;}
</style>
<g id="Cash_app">
	<path class="st0" d="M61,80H19C8.51,80,0,71.49,0,61V19C0,8.51,8.51,0,19,0h42c10.49,0,19,8.51,19,19v42C80,71.49,71.49,80,61,80z"
		/>
	<path class="st1" d="M54.14,30.1l-1.78,1.96c-0.48,0.53-1.26,0.64-1.87,0.27c-4.1-2.48-8.08-3.95-11.88-2.7
		c-1.03,0.43-1.55,1.1-1.71,1.92c-0.25,1.27,0.44,2.53,1.61,3.07l8.16,3.72c2.95,1.35,5.06,3.54,5.74,6.25
		c0.05,0.2,0.33,2.09-0.09,4.22c-0.89,4.53-5.61,7.64-11.93,8.05L40,59.7c-0.08,0.76-0.72,1.33-1.48,1.33h-4.34
		c-0.92,0-1.62-0.83-1.47-1.74l0.57-3.13c-2.64-0.88-5.26-2.46-7.27-4.14c-0.66-0.56-0.72-1.55-0.13-2.18l2.08-2.18
		c0.5-0.52,1.39-0.73,1.9-0.22c0.98,0.98,2.03,1.54,2.46,1.83c3.12,2.09,9.55,2.62,11.78-0.21c0.18-0.23,0.93-1.19,0.72-2.32
		c-0.27-1.42-1.86-2.08-2.08-2.17l-7.98-3.19c-4.35-1.85-6.84-6.06-5.33-10.99c1.26-4.13,5.95-7.13,11.32-6.95l0.61-3.27
		c0.13-0.71,0.75-1.22,1.47-1.22h4.07c0.97,0,1.68,0.9,1.45,1.84l-0.77,3.21c2.3,1,4.42,2.57,6.29,3.84
		C54.63,28.37,54.75,29.43,54.14,30.1z"/>
</g>
</svg>
