<?xml version="1.0" encoding="utf-8"?>
<!-- Generator: Adobe Illustrator 25.2.0, SVG Export Plug-In . SVG Version: 6.00 Build 0)  -->
<svg version="1.1" id="Layer_1" xmlns="http://www.w3.org/2000/svg" xmlns:xlink="http://www.w3.org/1999/xlink" x="0px" y="0px"
	 viewBox="0 0 80 80" style="enable-background:new 0 0 80 80;" xml:space="preserve">
<style type="text/css">
	.st0{fill:#008CFF;}
	.st1{fill:white;}
	.st2{fill:#3B5998;}
	.st3{fill:#FFFFFF;}
	.st4{fill:#00447B;}
	.st5{fill:#009CDE;}
	.st6{fill:#231F20;}
	.st7{fill:#ED1D24;}
	.st8{fill:#0077B5;}
	.st9{fill:#3BD75F;}
	.st10{fill:#6441A4;}
	.st11{fill:#0088CC;}
	.st12{fill:url(#SVGID_1_);}
	.st13{fill:url(#SVGID_2_);}
	.st14{fill:url(#SVGID_3_);}
	.st15{fill:url(#SVGID_4_);}
	.st16{fill:url(#SVGID_5_);}
	.st17{fill:#1DA1F2;}
	.st18{fill:#45D354;}
	.st19{fill-rule:evenodd;clip-rule:evenodd;fill:#FFFFFF;}
	.st20{fill-rule:evenodd;clip-rule:evenodd;fill:#231F20;}
	.st21{fill:#E60023;}
	.st22{fill-rule:evenodd;clip-rule:evenodd;fill:#E60023;}
	.st23{fill-rule:evenodd;clip-rule:evenodd;fill:#ED2C58;}
	.st24{fill-rule:evenodd;clip-rule:evenodd;fill:#16BCC8;}
	.st25{fill:#5865F2;}
	.st26{fill:url(#SVGID_6_);}
	.st27{fill:url(#SVGID_7_);}
	.st28{fill:url(#SVGID_8_);}
	.st29{fill:#F26F23;}
</style>
<g id="email_1_">
	<g>
		<g>
			<path class="st6" d="M61,2.48c9.11,0,16.52,7.41,16.52,16.52v42c0,9.11-7.41,16.52-16.52,16.52H19C9.89,77.52,2.48,70.11,2.48,61
				V19C2.48,9.89,9.89,2.48,19,2.48H61 M61,0H19C8.51,0,0,8.51,0,19v42c0,10.49,8.51,19,19,19h42c10.49,0,19-8.51,19-19V19
				C80,8.51,71.49,0,61,0L61,0z"/>
		</g>
	</g>
	<g>
		<g>
			<path class="st6" d="M55.02,57.01H24.98c-3.72,0-6.74-3.02-6.74-6.74V29.73c0-3.72,3.02-6.74,6.74-6.74h30.04
				c3.72,0,6.74,3.02,6.74,6.74v20.54C61.77,53.99,58.75,57.01,55.02,57.01z"/>
		</g>
		<g>
			<path class="st3" d="M39.85,42.79c-0.7,0-1.4-0.24-1.96-0.73L24.08,29.99c-0.37-0.33-0.41-0.9-0.09-1.27
				c0.33-0.37,0.9-0.41,1.27-0.09L39.07,40.7c0.44,0.39,1.11,0.39,1.55,0l13.81-12.06c0.37-0.33,0.94-0.29,1.27,0.09
				c0.33,0.37,0.29,0.94-0.09,1.27L41.81,42.06C41.25,42.55,40.55,42.79,39.85,42.79z"/>
		</g>
	</g>
</g>
</svg>
