<?xml version="1.0" encoding="utf-8"?>
<!-- Generator: Adobe Illustrator 25.2.0, SVG Export Plug-In . SVG Version: 6.00 Build 0)  -->
<svg version="1.1" id="Layer_1" xmlns="http://www.w3.org/2000/svg" xmlns:xlink="http://www.w3.org/1999/xlink" x="0px" y="0px"
	 viewBox="0 0 80 80" style="enable-background:new 0 0 80 80;" xml:space="preserve">
<style type="text/css">
	.st0{fill:#008CFF;}
	.st1{fill:#00D632;}
	.st2{fill:#3B5998;}
	.st3{fill:#FFFFFF;}
	.st4{fill:#00447B;}
	.st5{fill:#009CDE;}
	.st6{fill:#231F20;}
	.st7{fill:#ED1D24;}
	.st8{fill:#0077B5;}
	.st9{fill:#3BD75F;}
	.st10{fill:#6441A4;}
	.st11{fill:#0088CC;}
	.st12{fill:url(#SVGID_1_);}
	.st13{fill:url(#SVGID_2_);}
	.st14{fill:url(#SVGID_3_);}
	.st15{fill:url(#SVGID_4_);}
	.st16{fill:url(#SVGID_5_);}
	.st17{fill:#1DA1F2;}
	.st18{fill:#45D354;}
	.st19{fill-rule:evenodd;clip-rule:evenodd;fill:#FFFFFF;}
	.st20{fill-rule:evenodd;clip-rule:evenodd;fill:#231F20;}
	.st21{fill:#E60023;}
	.st22{fill-rule:evenodd;clip-rule:evenodd;fill:#E60023;}
	.st23{fill-rule:evenodd;clip-rule:evenodd;fill:#ED2C58;}
	.st24{fill-rule:evenodd;clip-rule:evenodd;fill:#16BCC8;}
	.st25{fill:#5865F2;}
	.st26{fill:url(#SVGID_6_);}
	.st27{fill:url(#SVGID_7_);}
	.st28{fill:url(#SVGID_8_);}
	.st29{fill:#F26F23;}
</style>
<g id="Facebook_1_">
	<g>
		<path class="st2" d="M61.07,2.48c9.11,0,16.52,7.41,16.52,16.52v42c0,9.11-7.41,16.52-16.52,16.52h-42
			C9.96,77.52,2.55,70.11,2.55,61V19c0-9.11,7.41-16.52,16.52-16.52H61.07 M61.07,0h-42c-10.49,0-19,8.51-19,19v42
			c0,10.49,8.51,19,19,19h42c10.49,0,19-8.51,19-19V19C80.07,8.51,71.57,0,61.07,0L61.07,0z"/>
	</g>
	<path id="XMLID_1_" class="st2" d="M34.39,62.54h9.08V39.81h6.33l0.68-7.61h-7.01c0,0,0-2.84,0-4.33c0-1.79,0.36-2.5,2.1-2.5
		c1.4,0,4.91,0,4.91,0v-7.9c0,0-5.18,0-6.28,0c-6.75,0-9.8,2.97-9.8,8.67c0,4.96,0,6.07,0,6.07h-4.72v7.71h4.72V62.54z"/>
</g>
</svg>
