<?xml version="1.0" encoding="utf-8"?>
<!-- Generator: Adobe Illustrator 25.2.0, SVG Export Plug-In . SVG Version: 6.00 Build 0)  -->
<svg version="1.1" id="Layer_1" xmlns="http://www.w3.org/2000/svg" xmlns:xlink="http://www.w3.org/1999/xlink" x="0px" y="0px"
	 viewBox="0 0 80 80" style="enable-background:new 0 0 80 80;" xml:space="preserve">
<style type="text/css">
	.st0{fill:#008CFF;}
	.st1{fill:white;}
	.st2{fill:#3B5998;}
	.st3{fill:#FFFFFF;}
	.st4{fill:#00447B;}
	.st5{fill:#009CDE;}
	.st6{fill:#231F20;}
	.st7{fill:#ED1D24;}
	.st8{fill:#0077B5;}
	.st9{fill:#3BD75F;}
	.st10{fill:#6441A4;}
	.st11{fill:#0088CC;}
	.st12{fill:url(#SVGID_1_);}
	.st13{fill:url(#SVGID_2_);}
	.st14{fill:url(#SVGID_3_);}
	.st15{fill:url(#SVGID_4_);}
	.st16{fill:url(#SVGID_5_);}
	.st17{fill:#1DA1F2;}
	.st18{fill:#45D354;}
	.st19{fill-rule:evenodd;clip-rule:evenodd;fill:#FFFFFF;}
	.st20{fill-rule:evenodd;clip-rule:evenodd;fill:#231F20;}
	.st21{fill:#E60023;}
	.st22{fill-rule:evenodd;clip-rule:evenodd;fill:#E60023;}
	.st23{fill-rule:evenodd;clip-rule:evenodd;fill:#ED2C58;}
	.st24{fill-rule:evenodd;clip-rule:evenodd;fill:#16BCC8;}
	.st25{fill:#5865F2;}
	.st26{fill:url(#SVGID_6_);}
	.st27{fill:url(#SVGID_7_);}
	.st28{fill:url(#SVGID_8_);}
	.st29{fill:#F26F23;}
</style>
<g id="Facebook">
	<path class="st2" d="M61,80H19C8.51,80,0,71.49,0,61V19C0,8.51,8.51,0,19,0h42c10.49,0,19,8.51,19,19v42C80,71.49,71.49,80,61,80z"
		/>
	<path id="XMLID_2_" class="st3" d="M34.23,62.88h9.22V39.81h6.43l0.69-7.73h-7.12c0,0,0-2.88,0-4.4c0-1.82,0.37-2.54,2.13-2.54
		c1.42,0,4.99,0,4.99,0v-8.02c0,0-5.26,0-6.38,0c-6.86,0-9.95,3.02-9.95,8.8c0,5.04,0,6.16,0,6.16h-4.79v7.82h4.79V62.88z"/>
</g>
</svg>
