<?xml version="1.0" encoding="utf-8"?>
<!-- Generator: Adobe Illustrator 25.2.0, SVG Export Plug-In . SVG Version: 6.00 Build 0)  -->
<svg version="1.1" id="Layer_1" xmlns="http://www.w3.org/2000/svg" xmlns:xlink="http://www.w3.org/1999/xlink" x="0px" y="0px"
	 viewBox="0 0 80 80" style="enable-background:new 0 0 80 80;" xml:space="preserve">
<style type="text/css">
	.st0{fill:#231F20;}
	.st1{fill:#FFFFFF;}
</style>
<g id="Facebook">
	<path class="st0" d="M61,80H19C8.51,80,0,71.49,0,61V19C0,8.51,8.51,0,19,0h42c10.49,0,19,8.51,19,19v42C80,71.49,71.49,80,61,80z"
		/>
	<path id="XMLID_2_" class="st1" d="M34.23,62.88h9.22V39.81h6.43l0.69-7.73h-7.12c0,0,0-2.88,0-4.4c0-1.82,0.37-2.54,2.13-2.54
		c1.42,0,4.99,0,4.99,0v-8.02c0,0-5.26,0-6.38,0c-6.86,0-9.95,3.02-9.95,8.8c0,5.04,0,6.16,0,6.16h-4.79v7.82h4.79V62.88z"/>
</g>
</svg>
