<?xml version="1.0" encoding="utf-8"?>
<!-- Generator: Adobe Illustrator 25.2.0, SVG Export Plug-In . SVG Version: 6.00 Build 0)  -->
<svg version="1.1" id="Layer_1" xmlns="http://www.w3.org/2000/svg" xmlns:xlink="http://www.w3.org/1999/xlink" x="0px" y="0px"
	 viewBox="0 0 80 80" style="enable-background:new 0 0 80 80;" xml:space="preserve">
<style type="text/css">
	.st0{fill:#008CFF;}
	.st1{fill:#00D632;}
	.st2{fill:#3B5998;}
	.st3{fill:#FFFFFF;}
	.st4{fill:#00447B;}
	.st5{fill:#009CDE;}
	.st6{fill:#231F20;}
	.st7{fill:#ED1D24;}
	.st8{fill:#0077B5;}
	.st9{fill:#3BD75F;}
	.st10{fill:#6441A4;}
	.st11{fill:#0088CC;}
	.st12{fill:url(#SVGID_1_);}
	.st13{fill:url(#SVGID_2_);}
	.st14{fill:url(#SVGID_3_);}
	.st15{fill:url(#SVGID_4_);}
	.st16{fill:url(#SVGID_5_);}
	.st17{fill:#1DA1F2;}
	.st18{fill:#45D354;}
	.st19{fill-rule:evenodd;clip-rule:evenodd;fill:#FFFFFF;}
	.st20{fill-rule:evenodd;clip-rule:evenodd;fill:#231F20;}
	.st21{fill:#E60023;}
	.st22{fill-rule:evenodd;clip-rule:evenodd;fill:#E60023;}
	.st23{fill-rule:evenodd;clip-rule:evenodd;fill:#ED2C58;}
	.st24{fill-rule:evenodd;clip-rule:evenodd;fill:#16BCC8;}
	.st25{fill:#5865F2;}
	.st26{fill:url(#SVGID_6_);}
	.st27{fill:url(#SVGID_7_);}
	.st28{fill:url(#SVGID_8_);}
	.st29{fill:#F26F23;}
</style>
<g id="instagram_3_">
	<g>
		<linearGradient id="SVGID_1_" gradientUnits="userSpaceOnUse" x1="69.829" y1="1.7876" x2="10.1708" y2="78.2124">
			<stop  offset="8.524463e-08" style="stop-color:#405DE6"/>
			<stop  offset="0.1145" style="stop-color:#5B51D8"/>
			<stop  offset="0.2263" style="stop-color:#833AB4"/>
			<stop  offset="0.3514" style="stop-color:#C13584"/>
			<stop  offset="0.4631" style="stop-color:#E1306C"/>
			<stop  offset="0.5927" style="stop-color:#FD1D1D"/>
			<stop  offset="0.7179" style="stop-color:#F56040"/>
			<stop  offset="0.8028" style="stop-color:#F77737"/>
			<stop  offset="0.9011" style="stop-color:#FCAF45"/>
			<stop  offset="1" style="stop-color:#FFDC80"/>
		</linearGradient>
		<path class="st12" d="M61,2.48c9.11,0,16.52,7.41,16.52,16.52v42c0,9.11-7.41,16.52-16.52,16.52H19C9.89,77.52,2.48,70.11,2.48,61
			V19C2.48,9.89,9.89,2.48,19,2.48H61 M61,0H19C8.51,0,0,8.51,0,19v42c0,10.49,8.51,19,19,19h42c10.49,0,19-8.51,19-19V19
			C80,8.51,71.49,0,61,0L61,0z"/>
	</g>
	<g>
		<g>
			<linearGradient id="SVGID_2_" gradientUnits="userSpaceOnUse" x1="53.4155" y1="15.2121" x2="23.7985" y2="69.9356">
				<stop  offset="8.524463e-08" style="stop-color:#405DE6"/>
				<stop  offset="0.1145" style="stop-color:#5B51D8"/>
				<stop  offset="0.2263" style="stop-color:#833AB4"/>
				<stop  offset="0.3514" style="stop-color:#C13584"/>
				<stop  offset="0.4631" style="stop-color:#E1306C"/>
				<stop  offset="0.5927" style="stop-color:#FD1D1D"/>
				<stop  offset="0.7179" style="stop-color:#F56040"/>
				<stop  offset="0.8028" style="stop-color:#F77737"/>
				<stop  offset="0.9011" style="stop-color:#FCAF45"/>
				<stop  offset="1" style="stop-color:#FFDC80"/>
			</linearGradient>
			<path class="st13" d="M50,65.19H30c-8.38,0-15.2-6.82-15.2-15.2V30c0-8.38,6.82-15.2,15.2-15.2h20c8.38,0,15.2,6.82,15.2,15.2v20
				C65.19,58.38,58.38,65.19,50,65.19z M30,18.54c-6.32,0-11.47,5.14-11.47,11.47v20c0,6.32,5.14,11.47,11.47,11.47h20
				c6.32,0,11.47-5.14,11.47-11.47V30c0-6.32-5.14-11.47-11.47-11.47H30z"/>
		</g>
		<g>
			<linearGradient id="SVGID_3_" gradientUnits="userSpaceOnUse" x1="53.4155" y1="15.2121" x2="23.7985" y2="69.9355">
				<stop  offset="8.524463e-08" style="stop-color:#405DE6"/>
				<stop  offset="0.1145" style="stop-color:#5B51D8"/>
				<stop  offset="0.2263" style="stop-color:#833AB4"/>
				<stop  offset="0.3514" style="stop-color:#C13584"/>
				<stop  offset="0.4631" style="stop-color:#E1306C"/>
				<stop  offset="0.5927" style="stop-color:#FD1D1D"/>
				<stop  offset="0.7179" style="stop-color:#F56040"/>
				<stop  offset="0.8028" style="stop-color:#F77737"/>
				<stop  offset="0.9011" style="stop-color:#FCAF45"/>
				<stop  offset="1" style="stop-color:#FFDC80"/>
			</linearGradient>
			<path class="st14" d="M40,53.01c-7.17,0-13.01-5.83-13.01-13.01S32.83,26.99,40,26.99S53.01,32.83,53.01,40S47.17,53.01,40,53.01
				z M40,30.72c-5.12,0-9.28,4.16-9.28,9.28c0,5.11,4.16,9.28,9.28,9.28s9.28-4.16,9.28-9.28C49.28,34.89,45.12,30.72,40,30.72z"/>
		</g>
		<g>
			<linearGradient id="SVGID_4_" gradientUnits="userSpaceOnUse" x1="58.363" y1="17.8898" x2="28.7459" y2="72.6132">
				<stop  offset="8.524463e-08" style="stop-color:#405DE6"/>
				<stop  offset="0.1145" style="stop-color:#5B51D8"/>
				<stop  offset="0.2263" style="stop-color:#833AB4"/>
				<stop  offset="0.3514" style="stop-color:#C13584"/>
				<stop  offset="0.4631" style="stop-color:#E1306C"/>
				<stop  offset="0.5927" style="stop-color:#FD1D1D"/>
				<stop  offset="0.7179" style="stop-color:#F56040"/>
				<stop  offset="0.8028" style="stop-color:#F77737"/>
				<stop  offset="0.9011" style="stop-color:#FCAF45"/>
				<stop  offset="1" style="stop-color:#FFDC80"/>
			</linearGradient>
			<circle class="st15" cx="53.71" cy="26.48" r="2.82"/>
		</g>
	</g>
</g>
</svg>
