<?xml version="1.0" encoding="utf-8"?>
<!-- Generator: Adobe Illustrator 25.2.0, SVG Export Plug-In . SVG Version: 6.00 Build 0)  -->
<svg version="1.1" id="Layer_1" xmlns="http://www.w3.org/2000/svg" xmlns:xlink="http://www.w3.org/1999/xlink" x="0px" y="0px"
	 viewBox="0 0 80 80" style="enable-background:new 0 0 80 80;" xml:space="preserve">
<style type="text/css">
	.st0{fill:#008CFF;}
	.st1{fill:white;}
	.st2{fill:#3B5998;}
	.st3{fill:#FFFFFF;}
	.st4{fill:#00447B;}
	.st5{fill:#009CDE;}
	.st6{fill:#231F20;}
	.st7{fill:#ED1D24;}
	.st8{fill:#0077B5;}
	.st9{fill:#3BD75F;}
	.st10{fill:#6441A4;}
	.st11{fill:#0088CC;}
	.st12{fill:url(#SVGID_1_);}
	.st13{fill:url(#SVGID_2_);}
	.st14{fill:url(#SVGID_3_);}
	.st15{fill:url(#SVGID_4_);}
	.st16{fill:url(#SVGID_5_);}
	.st17{fill:#1DA1F2;}
	.st18{fill:#45D354;}
	.st19{fill-rule:evenodd;clip-rule:evenodd;fill:#FFFFFF;}
	.st20{fill-rule:evenodd;clip-rule:evenodd;fill:#231F20;}
	.st21{fill:#E60023;}
	.st22{fill-rule:evenodd;clip-rule:evenodd;fill:#E60023;}
	.st23{fill-rule:evenodd;clip-rule:evenodd;fill:#ED2C58;}
	.st24{fill-rule:evenodd;clip-rule:evenodd;fill:#16BCC8;}
	.st25{fill:#5865F2;}
	.st26{fill:url(#SVGID_6_);}
	.st27{fill:url(#SVGID_7_);}
	.st28{fill:url(#SVGID_8_);}
	.st29{fill:#F26F23;}
</style>
<g id="linkedin_3_">
	<g>
		<path class="st8" d="M61,2.48c9.11,0,16.52,7.41,16.52,16.52v42c0,9.11-7.41,16.52-16.52,16.52H19C9.89,77.52,2.48,70.11,2.48,61
			V19C2.48,9.89,9.89,2.48,19,2.48H61 M61,0H19C8.51,0,0,8.51,0,19v42c0,10.49,8.51,19,19,19h42c10.49,0,19-8.51,19-19V19
			C80,8.51,71.49,0,61,0L61,0z"/>
	</g>
	<g>
		<rect x="19.26" y="32.81" class="st8" width="8.9" height="28.59"/>
		<path class="st8" d="M61.24,41.68c-0.01-0.92-0.16-2.61-1.11-4.43c-1.49-2.87-3.95-4.1-4.75-4.46c-3.16-1.42-6.1-0.75-7.36-0.35
			c-3.37,1.07-5.14,3.5-5.66,4.27c-0.04-1.3-0.08-2.61-0.12-3.91c-2.84,0-5.68,0-8.52,0c0,9.53,0,19.06,0,28.59
			c2.96,0,5.92,0,8.88,0c0.14-5.8,0.29-11.6,0.41-17.4c0.05-2.19,2.34-3.99,4.42-4.07c1.78,0,3.39,0.93,4.3,2.48
			c0.74,1.26,0.68,2.55,0.7,3.96c0.02,1.67,0.03,3.34,0.05,5.01c0.03,3.34,0.05,6.68,0.07,10.02c2.96,0,5.92,0,8.88,0
			C61.38,54.83,61.31,48.26,61.24,41.68z"/>
		<path class="st8" d="M23.71,18.6c-2.85,0-5.15,2.31-5.15,5.15c0,2.85,2.31,5.15,5.15,5.15c2.85,0,5.15-2.31,5.15-5.15
			C28.86,20.91,26.55,18.6,23.71,18.6z"/>
	</g>
</g>
</svg>
