<?xml version="1.0" encoding="utf-8"?>
<!-- Generator: Adobe Illustrator 25.2.0, SVG Export Plug-In . SVG Version: 6.00 Build 0)  -->
<svg version="1.1" id="Layer_1" xmlns="http://www.w3.org/2000/svg" xmlns:xlink="http://www.w3.org/1999/xlink" x="0px" y="0px"
	 viewBox="0 0 80 80" style="enable-background:new 0 0 80 80;" xml:space="preserve">
<style type="text/css">
	.st0{fill:#008CFF;}
	.st1{fill:white;}
	.st2{fill:#3B5998;}
	.st3{fill:#FFFFFF;}
	.st4{fill:#00447B;}
	.st5{fill:#009CDE;}
	.st6{fill:#231F20;}
	.st7{fill:#ED1D24;}
	.st8{fill:#0077B5;}
	.st9{fill:#3BD75F;}
	.st10{fill:#6441A4;}
	.st11{fill:#0088CC;}
	.st12{fill:url(#SVGID_1_);}
	.st13{fill:url(#SVGID_2_);}
	.st14{fill:url(#SVGID_3_);}
	.st15{fill:url(#SVGID_4_);}
	.st16{fill:url(#SVGID_5_);}
	.st17{fill:#1DA1F2;}
	.st18{fill:#45D354;}
	.st19{fill-rule:evenodd;clip-rule:evenodd;fill:#FFFFFF;}
	.st20{fill-rule:evenodd;clip-rule:evenodd;fill:#231F20;}
	.st21{fill:#E60023;}
	.st22{fill-rule:evenodd;clip-rule:evenodd;fill:#E60023;}
	.st23{fill-rule:evenodd;clip-rule:evenodd;fill:#ED2C58;}
	.st24{fill-rule:evenodd;clip-rule:evenodd;fill:#16BCC8;}
	.st25{fill:#5865F2;}
	.st26{fill:url(#SVGID_6_);}
	.st27{fill:url(#SVGID_7_);}
	.st28{fill:url(#SVGID_8_);}
	.st29{fill:#F26F23;}
</style>
<g id="pinterest_1_">
	<g>
		<path class="st6" d="M61,2.48c9.11,0,16.52,7.41,16.52,16.52v42c0,9.11-7.41,16.52-16.52,16.52H19C9.89,77.52,2.48,70.11,2.48,61
			V19C2.48,9.89,9.89,2.48,19,2.48H61 M61,0H19C8.51,0,0,8.51,0,19v42c0,10.49,8.51,19,19,19h42c10.49,0,19-8.51,19-19V19
			C80,8.51,71.49,0,61,0L61,0z"/>
	</g>
	<path class="st20" d="M26.1,44.41c-1.31-0.51-3.37-1.54-5.02-3.59c-3.96-4.91-2.26-11.49-1.91-12.85
		c2.12-8.22,10.17-13.25,16.92-14.75c2.03-0.45,7.61-1.61,13.7,1.2c0.91,0.42,8.4,4.02,10.88,12.33C63.49,36.16,58.8,48,50.04,51.12
		c-1.01,0.36-6.44,2.44-10.87-0.28c-1.27-0.78-2.11-1.74-2.62-2.44c-0.3,2.58-1.01,6.24-2.8,10.29c-1.58,3.57-4.29,9.08-5.48,8.71
		c-0.34-0.1-0.48-0.66-0.6-2.6c-0.34-5.57,0.19-8.63,0.19-8.63c1.37-7.9,3.83-17.29,4.12-18.37c-0.35-0.85-0.79-2.17-0.87-3.83
		c-0.05-1.11-0.11-5.97,3.19-8.08c0.35-0.22,2.31-1.47,4.27-0.71c1.89,0.73,2.52,2.84,2.66,3.32c0.61,2.02-0.13,3.29-1.36,7.73
		c-1.73,6.25-1.28,7.35-1.04,7.81c1.04,1.98,3.77,2.96,5.97,2.71c3.37-0.38,5.22-3.63,6.55-5.97c2.86-5.01,2.3-9.94,2.15-11.05
		c-0.28-2.1-0.75-5.6-3.59-8.37c-3.94-3.85-9.46-3.35-11.01-3.2c-2.2,0.2-6.89,1.1-10.35,5.13c-3.58,4.18-5.19,10.99-2.79,14.03
		c0.54,0.68,1.37,1.29,1.65,2.58C27.8,41.6,26.92,43.27,26.1,44.41z"/>
</g>
</svg>
