<?xml version="1.0" encoding="utf-8"?>
<!-- Generator: Adobe Illustrator 25.2.0, SVG Export Plug-In . SVG Version: 6.00 Build 0)  -->
<svg version="1.1" id="Layer_1" xmlns="http://www.w3.org/2000/svg" xmlns:xlink="http://www.w3.org/1999/xlink" x="0px" y="0px"
	 viewBox="0 0 80 80" style="enable-background:new 0 0 80 80;" xml:space="preserve">
<style type="text/css">
	.st0{fill:#008CFF;}
	.st1{fill:#00D632;}
	.st2{fill:#3B5998;}
	.st3{fill:#FFFFFF;}
	.st4{fill:#00447B;}
	.st5{fill:#009CDE;}
	.st6{fill:#231F20;}
	.st7{fill:#ED1D24;}
	.st8{fill:#0077B5;}
	.st9{fill:#3BD75F;}
	.st10{fill:#6441A4;}
	.st11{fill:#0088CC;}
	.st12{fill:url(#SVGID_1_);}
	.st13{fill:url(#SVGID_2_);}
	.st14{fill:url(#SVGID_3_);}
	.st15{fill:url(#SVGID_4_);}
	.st16{fill:url(#SVGID_5_);}
	.st17{fill:#1DA1F2;}
	.st18{fill:#45D354;}
	.st19{fill-rule:evenodd;clip-rule:evenodd;fill:#FFFFFF;}
	.st20{fill-rule:evenodd;clip-rule:evenodd;fill:#231F20;}
	.st21{fill:#E60023;}
	.st22{fill-rule:evenodd;clip-rule:evenodd;fill:#E60023;}
	.st23{fill-rule:evenodd;clip-rule:evenodd;fill:#ED2C58;}
	.st24{fill-rule:evenodd;clip-rule:evenodd;fill:#16BCC8;}
	.st25{fill:#5865F2;}
	.st26{fill:url(#SVGID_6_);}
	.st27{fill:url(#SVGID_7_);}
	.st28{fill:url(#SVGID_8_);}
	.st29{fill:#F26F23;}
</style>
<g id="spotify">
	<path class="st6" d="M61,80H19C8.51,80,0,71.49,0,61V19C0,8.51,8.51,0,19,0h42c10.49,0,19,8.51,19,19v42C80,71.49,71.49,80,61,80z"
		/>
	<g>
		<g>
			<circle class="st3" cx="40" cy="40" r="24.32"/>
		</g>
		<g>
			<g>
				<path class="st6" d="M55.47,36.77c-0.31,0-0.62-0.09-0.9-0.27c-7.3-4.83-17.02-5.92-29.71-3.33c-0.88,0.18-1.75-0.39-1.93-1.28
					c-0.18-0.89,0.39-1.75,1.28-1.93c13.58-2.77,24.11-1.53,32.17,3.81c0.75,0.5,0.96,1.52,0.46,2.27
					C56.52,36.51,56,36.77,55.47,36.77z"/>
			</g>
			<g>
				<path class="st6" d="M52.51,43.98c-0.31,0-0.62-0.09-0.9-0.27c-5.83-3.86-13.61-4.73-23.78-2.65c-0.88,0.18-1.75-0.39-1.93-1.28
					c-0.18-0.89,0.39-1.75,1.28-1.93c11.07-2.26,19.66-1.24,26.25,3.13c0.75,0.5,0.96,1.52,0.46,2.27
					C53.56,43.72,53.04,43.98,52.51,43.98z"/>
			</g>
			<g>
				<path class="st6" d="M51.36,51.47c-0.31,0-0.62-0.09-0.9-0.27c-5.26-3.48-12.28-4.26-21.48-2.38c-0.89,0.18-1.75-0.39-1.93-1.28
					c-0.18-0.89,0.39-1.75,1.28-1.93c10.09-2.06,17.93-1.13,23.95,2.86c0.75,0.5,0.96,1.52,0.46,2.27
					C52.41,51.22,51.89,51.47,51.36,51.47z"/>
			</g>
		</g>
	</g>
</g>
</svg>
