<?xml version="1.0" encoding="utf-8"?>
<!-- Generator: Adobe Illustrator 25.2.0, SVG Export Plug-In . SVG Version: 6.00 Build 0)  -->
<svg version="1.1" id="Layer_1" xmlns="http://www.w3.org/2000/svg" xmlns:xlink="http://www.w3.org/1999/xlink" x="0px" y="0px"
	 viewBox="0 0 80 80" style="enable-background:new 0 0 80 80;" xml:space="preserve">
<style type="text/css">
	.st0{fill:#231F20;}
	.st1{fill:#FFFFFF;}
</style>
<g id="telegram_1_">
	<path class="st0" d="M61,80H19C8.51,80,0,71.49,0,61V19C0,8.51,8.51,0,19,0h42c10.49,0,19,8.51,19,19v42C80,71.49,71.49,80,61,80z"
		/>
	<g>
		<path class="st1" d="M60.03,25.18l-7.26,30.26c-0.22,0.96-1.33,1.4-2.15,0.85L35.74,45.98c-0.25-0.17-0.28-0.54-0.06-0.75
			l16.45-15.82c0.12-0.12-0.03-0.31-0.17-0.22l-21.9,13.48c-0.12,0.07-0.26,0.09-0.4,0.05L20.86,40c-1.22-0.44-1.24-2.15-0.03-2.62
			c12.01-4.68,25.31-9.13,37.32-13.81C59.2,23.16,60.28,24.08,60.03,25.18z"/>
	</g>
</g>
</svg>
