<?xml version="1.0" encoding="utf-8"?>
<!-- Generator: Adobe Illustrator 25.2.0, SVG Export Plug-In . SVG Version: 6.00 Build 0)  -->
<svg version="1.1" id="Layer_1" xmlns="http://www.w3.org/2000/svg" xmlns:xlink="http://www.w3.org/1999/xlink" x="0px" y="0px"
	 viewBox="0 0 80 80" style="enable-background:new 0 0 80 80;" xml:space="preserve">
<style type="text/css">
	.st0{fill:#008CFF;}
	.st1{fill:white;}
	.st2{fill:#3B5998;}
	.st3{fill:#FFFFFF;}
	.st4{fill:#00447B;}
	.st5{fill:#009CDE;}
	.st6{fill:#231F20;}
	.st7{fill:#ED1D24;}
	.st8{fill:#0077B5;}
	.st9{fill:#3BD75F;}
	.st10{fill:#6441A4;}
	.st11{fill:#0088CC;}
	.st12{fill:url(#SVGID_1_);}
	.st13{fill:url(#SVGID_2_);}
	.st14{fill:url(#SVGID_3_);}
	.st15{fill:url(#SVGID_4_);}
	.st16{fill:url(#SVGID_5_);}
	.st17{fill:#1DA1F2;}
	.st18{fill:#45D354;}
	.st19{fill-rule:evenodd;clip-rule:evenodd;fill:#FFFFFF;}
	.st20{fill-rule:evenodd;clip-rule:evenodd;fill:#231F20;}
	.st21{fill:#E60023;}
	.st22{fill-rule:evenodd;clip-rule:evenodd;fill:#E60023;}
	.st23{fill-rule:evenodd;clip-rule:evenodd;fill:#ED2C58;}
	.st24{fill-rule:evenodd;clip-rule:evenodd;fill:#16BCC8;}
	.st25{fill:#5865F2;}
	.st26{fill:url(#SVGID_6_);}
	.st27{fill:url(#SVGID_7_);}
	.st28{fill:url(#SVGID_8_);}
	.st29{fill:#F26F23;}
</style>
<g id="tik_tok">
	<path class="st6" d="M61,80H19C8.51,80,0,71.49,0,61V19C0,8.51,8.51,0,19,0h42c10.49,0,19,8.51,19,19v42C80,71.49,71.49,80,61,80z"
		/>
	<g>
		<path class="st19" d="M48.12,31.21c3.17,2.27,7.06,3.6,11.25,3.6v-6.35c-2.34-0.5-4.42-1.72-5.98-3.42
			c-2.67-1.66-4.59-4.41-5.16-7.62c0,0-5.88,0-5.88,0c0,3.16,0,6.31,0,9.47c0,5.5,0,11,0,16.49c0,1.63,0,3.26,0,4.89
			c0,3.89-2.88,7.66-6.83,8.19c-3.4,0.46-5.95-1.76-6.21-2c-2.27-2.04-3.59-5.82-2.68-8.79c0.87-2.84,3.57-4.83,6.53-4.83
			c0.72,0,1.42,0.11,2.07,0.32v-6.42c-8.1,0.17-14.61,6.78-14.61,14.92c0,2.36,0.68,4.48,0.68,4.48c0.88,2.53,2.38,4.18,3.24,5.01
			c0.69,0.73,2.01,1.96,4.03,2.75c0,0,2.1,0.72,4.6,0.72c8.24,0,14.93-6.68,14.93-14.92V31.21z"/>
	</g>
</g>
</svg>
