<?xml version="1.0" encoding="utf-8"?>
<!-- Generator: Adobe Illustrator 25.2.0, SVG Export Plug-In . SVG Version: 6.00 Build 0)  -->
<svg version="1.1" id="Layer_1" xmlns="http://www.w3.org/2000/svg" xmlns:xlink="http://www.w3.org/1999/xlink" x="0px" y="0px"
	 viewBox="0 0 80 80" style="enable-background:new 0 0 80 80;" xml:space="preserve">
<style type="text/css">
	.st0{fill:#008CFF;}
	.st1{fill:#00D632;}
	.st2{fill:#3B5998;}
	.st3{fill:#FFFFFF;}
	.st4{fill:#00447B;}
	.st5{fill:#009CDE;}
	.st6{fill:#231F20;}
	.st7{fill:#ED1D24;}
	.st8{fill:#0077B5;}
	.st9{fill:#3BD75F;}
	.st10{fill:#6441A4;}
	.st11{fill:#0088CC;}
	.st12{fill:url(#SVGID_1_);}
	.st13{fill:url(#SVGID_2_);}
	.st14{fill:url(#SVGID_3_);}
	.st15{fill:url(#SVGID_4_);}
	.st16{fill:url(#SVGID_5_);}
	.st17{fill:#1DA1F2;}
	.st18{fill:#45D354;}
	.st19{fill-rule:evenodd;clip-rule:evenodd;fill:#FFFFFF;}
	.st20{fill-rule:evenodd;clip-rule:evenodd;fill:#231F20;}
	.st21{fill:#E60023;}
	.st22{fill-rule:evenodd;clip-rule:evenodd;fill:#E60023;}
	.st23{fill-rule:evenodd;clip-rule:evenodd;fill:#ED2C58;}
	.st24{fill-rule:evenodd;clip-rule:evenodd;fill:#16BCC8;}
	.st25{fill:#5865F2;}
	.st26{fill:url(#SVGID_6_);}
	.st27{fill:url(#SVGID_7_);}
	.st28{fill:url(#SVGID_8_);}
	.st29{fill:#F26F23;}
</style>
<g id="twitter_2_">
	<path class="st17" d="M61,80H19C8.51,80,0,71.49,0,61V19C0,8.51,8.51,0,19,0h42c10.49,0,19,8.51,19,19v42C80,71.49,71.49,80,61,80z
		"/>
	<path class="st3" d="M39.41,31.34c-0.53-4.6,1.45-9.04,5.1-11.34c0.38-0.24,4.59-2.81,9.42-1.13c2.02,0.7,3.38,1.88,4.13,2.63
		c2.35-0.78,4.7-1.55,7.05-2.33c-0.23,0.82-0.68,2.05-1.61,3.34c-0.84,1.16-1.76,1.93-2.42,2.39c1.2-0.19,2.54-0.49,3.95-0.96
		c0.5-0.17,0.97-0.34,1.42-0.53c-0.63,1.13-1.58,2.55-3,3.94c-0.76,0.74-1.51,1.34-2.19,1.81c0.17,1.95,0.98,13.21-7.36,22.59
		c-7.97,8.98-18.65,9.87-22.32,9.95c-8.91,0.21-15.44-3.45-18.02-5.09c2.18,0.22,5.97,0.28,10.21-1.33
		c2.32-0.88,4.14-2.03,5.45-3.02c-0.96-0.06-3.94-0.38-6.57-2.74c-2.09-1.87-2.89-4.05-3.18-5.03c0.87,0.11,1.89,0.16,3.01,0.06
		c0.34-0.03,0.66-0.07,0.96-0.12c-0.88-0.27-3.96-1.34-6.03-4.54c-1.76-2.71-1.79-5.4-1.76-6.4c0.57,0.31,1.37,0.67,2.37,0.9
		c0.72,0.16,1.36,0.22,1.89,0.22c-0.6-0.47-4.08-3.32-4.38-8.15c-0.19-3.1,1.01-5.43,1.57-6.37c1.31,1.57,2.98,3.26,5.09,4.86
		C28.71,29.88,35.65,31.03,39.41,31.34z"/>
</g>
</svg>
