<?xml version="1.0" encoding="utf-8"?>
<!-- Generator: Adobe Illustrator 25.2.0, SVG Export Plug-In . SVG Version: 6.00 Build 0)  -->
<svg version="1.1" id="Layer_1" xmlns="http://www.w3.org/2000/svg" xmlns:xlink="http://www.w3.org/1999/xlink" x="0px" y="0px"
	 viewBox="0 0 80 80" style="enable-background:new 0 0 80 80;" xml:space="preserve">
<style type="text/css">
	.st0{fill:#008CFF;}
	.st1{fill:#00D632;}
	.st2{fill:#3B5998;}
	.st3{fill:#FFFFFF;}
	.st4{fill:#00447B;}
	.st5{fill:#009CDE;}
	.st6{fill:#231F20;}
	.st7{fill:#ED1D24;}
	.st8{fill:#0077B5;}
	.st9{fill:#3BD75F;}
	.st10{fill:#6441A4;}
	.st11{fill:#0088CC;}
	.st12{fill:url(#SVGID_1_);}
	.st13{fill:url(#SVGID_2_);}
	.st14{fill:url(#SVGID_3_);}
	.st15{fill:url(#SVGID_4_);}
	.st16{fill:url(#SVGID_5_);}
	.st17{fill:#1DA1F2;}
	.st18{fill:#45D354;}
	.st19{fill-rule:evenodd;clip-rule:evenodd;fill:#FFFFFF;}
	.st20{fill-rule:evenodd;clip-rule:evenodd;fill:#231F20;}
	.st21{fill:#E60023;}
	.st22{fill-rule:evenodd;clip-rule:evenodd;fill:#E60023;}
	.st23{fill-rule:evenodd;clip-rule:evenodd;fill:#ED2C58;}
	.st24{fill-rule:evenodd;clip-rule:evenodd;fill:#16BCC8;}
	.st25{fill:#5865F2;}
	.st26{fill:url(#SVGID_6_);}
	.st27{fill:url(#SVGID_7_);}
	.st28{fill:url(#SVGID_8_);}
	.st29{fill:#F26F23;}
</style>
<g id="whats_app_3_">
	<g>
		<path class="st18" d="M61,2.48c9.11,0,16.52,7.41,16.52,16.52v42c0,9.11-7.41,16.52-16.52,16.52H19C9.89,77.52,2.48,70.11,2.48,61
			V19C2.48,9.89,9.89,2.48,19,2.48H61 M61,0H19C8.51,0,0,8.51,0,19v42c0,10.49,8.51,19,19,19h42c10.49,0,19-8.51,19-19V19
			C80,8.51,71.49,0,61,0L61,0z"/>
	</g>
	<g>
		<g>
			<path class="st18" d="M40.35,62.79c-3.49,0-6.96-0.81-10.07-2.34L16.86,62.7l3.57-11.63c-1.88-3.37-2.87-7.18-2.87-11.07
				c0-12.56,10.22-22.78,22.78-22.78c12.56,0,22.79,10.22,22.79,22.78C63.14,52.56,52.92,62.79,40.35,62.79z M30.82,57.03l0.49,0.26
				c2.77,1.45,5.9,2.22,9.05,2.22c10.76,0,19.51-8.75,19.51-19.51c0-10.75-8.75-19.5-19.51-19.5c-10.75,0-19.5,8.75-19.5,19.5
				c0,3.54,0.96,7.01,2.77,10.02l0.38,0.63l-2.44,7.93L30.82,57.03z"/>
		</g>
		<g>
			<path class="st18" d="M30.17,26.9c0.22-0.19,1.34-0.91,2.34-0.52c1,0.39,1.89,1.49,2.59,2.25c0.89,0.97,2.03,2.12,2.14,3.5
				c0.08,0.97-0.76,1.57-1.45,2.09c-0.7,0.53-1.25,1.19-1.46,2.06c-0.39,1.59,1.03,2.57,1.17,2.76c0.62,0.87,1.54,1.62,2.29,2.38
				c1.21,1.23,2.42,2.47,3.7,3.62c0.98,0.89,2.34,1.42,3.59,0.72c0.52-0.29,0.95-0.73,1.33-1.18c0.22-0.25,0.41-0.66,0.68-0.86
				c0.11-0.08,0.56-0.87,1.59-0.5c0.87,0.3,1.67,1.03,2.37,1.6c0.57,0.45,1.13,0.9,1.66,1.4c0.38,0.36,1.08,0.93,1.19,1.47
				c0.27,1.35-0.17,2.08-1.07,3.03c-1.17,1.24-2.46,2.25-4.12,2.74c-5.03,1.46-9.19-3.44-12.46-6.52c-2.78-2.62-5.58-5.37-7.81-8.49
				c-1.36-1.9-1.91-4.03-1.62-6.36C27.08,29.92,28.59,28.29,30.17,26.9z"/>
		</g>
	</g>
</g>
</svg>
