<?xml version="1.0" encoding="utf-8"?>
<!-- Generator: Adobe Illustrator 25.2.0, SVG Export Plug-In . SVG Version: 6.00 Build 0)  -->
<svg version="1.1" id="Layer_1" xmlns="http://www.w3.org/2000/svg" xmlns:xlink="http://www.w3.org/1999/xlink" x="0px" y="0px"
	 viewBox="0 0 80 80" style="enable-background:new 0 0 80 80;" xml:space="preserve">
<style type="text/css">
	.st0{fill:#008CFF;}
	.st1{fill:white;}
	.st2{fill:#3B5998;}
	.st3{fill:#FFFFFF;}
	.st4{fill:#00447B;}
	.st5{fill:#009CDE;}
	.st6{fill:#231F20;}
	.st7{fill:#ED1D24;}
	.st8{fill:#0077B5;}
	.st9{fill:#3BD75F;}
	.st10{fill:#6441A4;}
	.st11{fill:#0088CC;}
	.st12{fill:url(#SVGID_1_);}
	.st13{fill:url(#SVGID_2_);}
	.st14{fill:url(#SVGID_3_);}
	.st15{fill:url(#SVGID_4_);}
	.st16{fill:url(#SVGID_5_);}
	.st17{fill:#1DA1F2;}
	.st18{fill:#45D354;}
	.st19{fill-rule:evenodd;clip-rule:evenodd;fill:#FFFFFF;}
	.st20{fill-rule:evenodd;clip-rule:evenodd;fill:#231F20;}
	.st21{fill:#E60023;}
	.st22{fill-rule:evenodd;clip-rule:evenodd;fill:#E60023;}
	.st23{fill-rule:evenodd;clip-rule:evenodd;fill:#ED2C58;}
	.st24{fill-rule:evenodd;clip-rule:evenodd;fill:#16BCC8;}
	.st25{fill:#5865F2;}
	.st26{fill:url(#SVGID_6_);}
	.st27{fill:url(#SVGID_7_);}
	.st28{fill:url(#SVGID_8_);}
	.st29{fill:#F26F23;}
</style>
<g id="apple_music_3_">
	<g>
		<g>
			<linearGradient id="SVGID_1_" gradientUnits="userSpaceOnUse" x1="72.025" y1="3.4" x2="7.9749" y2="76.6">
				<stop  offset="0" style="stop-color:#F94C57"/>
				<stop  offset="1" style="stop-color:#FC3C44"/>
			</linearGradient>
			<path class="st12" d="M61,2.48c9.11,0,16.52,7.41,16.52,16.52v42c0,9.11-7.41,16.52-16.52,16.52H19
				C9.89,77.52,2.48,70.11,2.48,61V19C2.48,9.89,9.89,2.48,19,2.48H61 M61,0H19C8.51,0,0,8.51,0,19v42c0,10.49,8.51,19,19,19h42
				c10.49,0,19-8.51,19-19V19C80,8.51,71.49,0,61,0L61,0z"/>
		</g>
	</g>
	<linearGradient id="SVGID_2_" gradientUnits="userSpaceOnUse" x1="66.9893" y1="10.5541" x2="17.6276" y2="70.1286">
		<stop  offset="0" style="stop-color:#F94C57"/>
		<stop  offset="1" style="stop-color:#FC3C44"/>
	</linearGradient>
	<path class="st13" d="M32.8,23.87l0.06,2.05H32.8v24.28c-4.32,0.04-7.7,1.93-8.43,4.56c-0.04,0.16-0.5,1.91,0.46,3.34
		c1.42,2.11,5.22,2.47,7.58,0.82c1.54-1.07,2.43-2.67,2.6-4.26h0.05V32.79l18.45-3.66v17.01c-4.61-0.1-8.11,1.92-8.71,4.52
		c-0.41,1.79,0.7,3.31,0.75,3.38c1.58,2.11,5.25,2.44,7.58,0.82c1.65-1.15,2.58-2.91,2.64-4.62h0.01V28.68V22.7v-2.65L32.8,23.87z"
		/>
</g>
</svg>
