<?xml version="1.0" encoding="utf-8"?>
<!-- Generator: Adobe Illustrator 25.2.0, SVG Export Plug-In . SVG Version: 6.00 Build 0)  -->
<svg version="1.1" id="Layer_1" xmlns="http://www.w3.org/2000/svg" xmlns:xlink="http://www.w3.org/1999/xlink" x="0px" y="0px"
	 viewBox="0 0 80 80" style="enable-background:new 0 0 80 80;" xml:space="preserve">
<style type="text/css">
	.st0{fill:#008CFF;}
	.st1{fill:white;}
	.st2{fill:#3B5998;}
	.st3{fill:#FFFFFF;}
	.st4{fill:#00447B;}
	.st5{fill:#009CDE;}
	.st6{fill:#231F20;}
	.st7{fill:#ED1D24;}
	.st8{fill:#0077B5;}
	.st9{fill:#3BD75F;}
	.st10{fill:#6441A4;}
	.st11{fill:#0088CC;}
	.st12{fill:url(#SVGID_1_);}
	.st13{fill:url(#SVGID_2_);}
	.st14{fill:url(#SVGID_3_);}
	.st15{fill:url(#SVGID_4_);}
	.st16{fill:url(#SVGID_5_);}
	.st17{fill:#1DA1F2;}
	.st18{fill:#45D354;}
	.st19{fill-rule:evenodd;clip-rule:evenodd;fill:#FFFFFF;}
	.st20{fill-rule:evenodd;clip-rule:evenodd;fill:#231F20;}
	.st21{fill:#E60023;}
	.st22{fill-rule:evenodd;clip-rule:evenodd;fill:#E60023;}
	.st23{fill-rule:evenodd;clip-rule:evenodd;fill:#ED2C58;}
	.st24{fill-rule:evenodd;clip-rule:evenodd;fill:#16BCC8;}
	.st25{fill:#5865F2;}
	.st26{fill:url(#SVGID_6_);}
	.st27{fill:url(#SVGID_7_);}
	.st28{fill:url(#SVGID_8_);}
	.st29{fill:#F26F23;}
</style>
<g id="cuplr">
	<g>
		<path class="st6" d="M61,2.48c9.11,0,16.52,7.41,16.52,16.52v42c0,9.11-7.41,16.52-16.52,16.52H19C9.89,77.52,2.48,70.11,2.48,61
			V19C2.48,9.89,9.89,2.48,19,2.48H61 M61,0H19C8.51,0,0,8.51,0,19v42c0,10.49,8.51,19,19,19h42c10.49,0,19-8.51,19-19V19
			C80,8.51,71.49,0,61,0L61,0z"/>
	</g>
	<g>
		<g>
			<path d="M58.69,35.56c-1.42-3.17-4.75-4.44-7.62-5.54c-4.05-1.56-7.38-1.58-11.64-1.75c-1.94-0.07-6.86-0.17-12.84,1.19
				c-4.07,0.92-8.74,2.71-10.45,6.86c-0.96,2.33-0.43,5.52,0.15,7.9c0.63,2.61,1.75,5.1,3.21,7.36c4.31,6.7,12.03,9.7,19.61,10.87
				c-9.65-3.78-15.89-8.85-17.09-15.82c0.2,0.62,1.08,1.48,1.43,1.95c0.51,0.66,1.04,1.29,1.6,1.9c1.11,1.2,2.33,2.32,3.64,3.3
				c2.22,1.64,4.74,2.95,7.44,3.56c8.35,1.87,19.55-5.47,22.43-14.52C59.07,41.21,59.93,38.36,58.69,35.56z M38.15,41.59
				c-9.94,0-18-2.57-18-5.75c0-3.18,8.06-5.75,18-5.75c9.94,0,18,2.57,18,5.75C56.15,39.02,48.09,41.59,38.15,41.59z"/>
		</g>
		<g>
			<path d="M58.45,49.98c-0.28,0-0.56-0.13-0.74-0.37c-0.31-0.41-0.23-0.99,0.18-1.31l5.23-3.99c0.89-0.68,1.42-1.75,1.42-2.86
				c0-1.99-1.62-3.6-3.6-3.6h-3.31c-0.51,0-0.93-0.42-0.93-0.93s0.42-0.93,0.93-0.93h3.31c3.01,0,5.47,2.45,5.47,5.47
				c0,1.69-0.8,3.32-2.15,4.35l-5.23,3.99C58.85,49.92,58.65,49.98,58.45,49.98z"/>
		</g>
		<g>
			<g>
				<path d="M40.92,15.55c0.89,1.39,1.28,3.11,1.27,4.79c-0.02,1.69-0.36,3.39-1.12,4.96c-0.38,0.78-0.85,1.51-1.4,2.16
					c-0.52,0.6-0.98,1.2-1.43,1.81c-0.89,1.23-1.52,2.57-1.84,4.2c-0.48-1.58-0.18-3.42,0.59-4.94c0.35-0.78,0.83-1.47,1.28-2.14
					c0.43-0.62,0.81-1.25,1.13-1.91c0.64-1.32,1.08-2.77,1.35-4.26C41.01,18.72,41.08,17.19,40.92,15.55z"/>
			</g>
			<g>
				<path d="M43.58,21.16c0.74,0.95,1.07,2.19,1.12,3.41c0.03,1.23-0.21,2.46-0.76,3.6c-0.28,0.57-0.63,1.1-1.03,1.57
					c-0.36,0.42-0.71,0.82-1.03,1.23c-0.65,0.82-1.15,1.7-1.49,2.86c-0.46-1.11-0.29-2.48,0.23-3.6c0.24-0.57,0.57-1.09,0.89-1.56
					c0.29-0.43,0.54-0.86,0.76-1.31c0.43-0.89,0.75-1.89,0.98-2.91C43.47,23.41,43.57,22.35,43.58,21.16z"/>
			</g>
		</g>
	</g>
</g>
</svg>
