<?xml version="1.0" encoding="utf-8"?>
<!-- Generator: Adobe Illustrator 25.2.0, SVG Export Plug-In . SVG Version: 6.00 Build 0)  -->
<svg version="1.1" id="Layer_1" xmlns="http://www.w3.org/2000/svg" xmlns:xlink="http://www.w3.org/1999/xlink" x="0px" y="0px"
	 viewBox="0 0 80 80" style="enable-background:new 0 0 80 80;" xml:space="preserve">
<style type="text/css">
	.st0{fill:#008CFF;}
	.st1{fill:#00D632;}
	.st2{fill:#3B5998;}
	.st3{fill:#FFFFFF;}
	.st4{fill:#00447B;}
	.st5{fill:#009CDE;}
	.st6{fill:#231F20;}
	.st7{fill:#ED1D24;}
	.st8{fill:#0077B5;}
	.st9{fill:#3BD75F;}
	.st10{fill:#6441A4;}
	.st11{fill:#0088CC;}
	.st12{fill:url(#SVGID_1_);}
	.st13{fill:url(#SVGID_2_);}
	.st14{fill:url(#SVGID_3_);}
	.st15{fill:url(#SVGID_4_);}
	.st16{fill:url(#SVGID_5_);}
	.st17{fill:#1DA1F2;}
	.st18{fill:#45D354;}
	.st19{fill-rule:evenodd;clip-rule:evenodd;fill:#FFFFFF;}
	.st20{fill-rule:evenodd;clip-rule:evenodd;fill:#231F20;}
	.st21{fill:#E60023;}
	.st22{fill-rule:evenodd;clip-rule:evenodd;fill:#E60023;}
	.st23{fill-rule:evenodd;clip-rule:evenodd;fill:#ED2C58;}
	.st24{fill-rule:evenodd;clip-rule:evenodd;fill:#16BCC8;}
	.st25{fill:#5865F2;}
	.st26{fill:url(#SVGID_6_);}
	.st27{fill:url(#SVGID_7_);}
	.st28{fill:url(#SVGID_8_);}
	.st29{fill:#F26F23;}
</style>
<g id="Discord">
	<g>
		<path class="st6" d="M61,2.48c9.11,0,16.52,7.41,16.52,16.52v42c0,9.11-7.41,16.52-16.52,16.52H19C9.89,77.52,2.48,70.11,2.48,61
			V19C2.48,9.89,9.89,2.48,19,2.48H61 M61,0H19C8.51,0,0,8.51,0,19v42c0,10.49,8.51,19,19,19h42c10.49,0,19-8.51,19-19V19
			C80,8.51,71.49,0,61,0L61,0z"/>
	</g>
	<g>
		<path class="st6" d="M27.7,58.71l-12.25-5.82c-0.24-0.11-0.4-0.36-0.4-0.63v-4.02c0-3.87,0.77-7.7,2.25-11.27l4.56-10.94
			c0.45-1.08,1.36-1.91,2.48-2.25l8.24-2.52c0.31-0.09,0.64,0.04,0.8,0.31l0.74,1.26c0.31,0.52,0.87,0.84,1.47,0.84h9.41
			c0.73,0,1.38-0.47,1.62-1.16l0.26-0.78c0.12-0.35,0.5-0.55,0.85-0.45l8.52,2.51c1.14,0.34,2.07,1.17,2.53,2.27l3.91,9.42
			c1.48,3.57,2.24,7.39,2.24,11.25v5.56c0,0.26-0.14,0.5-0.37,0.62L53.3,58.72c-0.23,0.12-0.51,0.06-0.66-0.15l-2.1-2.74
			c-0.21-0.28-0.1-0.69,0.23-0.82l1.38-0.54c0.9-0.35,1.2-1.48,0.59-2.24v0c-0.41-0.5-1.09-0.65-1.68-0.4
			c-7.29,3.12-14.71,3.09-22.23,0.17c-0.72-0.28-1.5,0.26-1.5,1.04v0c0,0.43,0.25,0.83,0.65,1.01l1.65,0.76
			c0.27,0.13,0.39,0.45,0.25,0.72l-1.46,2.92C28.28,58.72,27.97,58.83,27.7,58.71z"/>
		<g>
			<ellipse class="st3" cx="32.04" cy="42.37" rx="4.54" ry="5.38"/>
			<ellipse class="st3" cx="48.81" cy="42.37" rx="4.54" ry="5.38"/>
		</g>
	</g>
</g>
</svg>
