<?xml version="1.0" encoding="utf-8"?>
<!-- Generator: Adobe Illustrator 25.2.0, SVG Export Plug-In . SVG Version: 6.00 Build 0)  -->
<svg version="1.1" id="Layer_1" xmlns="http://www.w3.org/2000/svg" xmlns:xlink="http://www.w3.org/1999/xlink" x="0px" y="0px"
	 viewBox="0 0 80 80" style="enable-background:new 0 0 80 80;" xml:space="preserve">
<style type="text/css">
	.st0{fill:#008CFF;}
	.st1{fill:white;}
	.st2{fill:#3B5998;}
	.st3{fill:#FFFFFF;}
	.st4{fill:#00447B;}
	.st5{fill:#009CDE;}
	.st6{fill:#231F20;}
	.st7{fill:#ED1D24;}
	.st8{fill:#0077B5;}
	.st9{fill:#3BD75F;}
	.st10{fill:#6441A4;}
	.st11{fill:#0088CC;}
	.st12{fill:url(#SVGID_1_);}
	.st13{fill:url(#SVGID_2_);}
	.st14{fill:url(#SVGID_3_);}
	.st15{fill:url(#SVGID_4_);}
	.st16{fill:url(#SVGID_5_);}
	.st17{fill:#1DA1F2;}
	.st18{fill:#45D354;}
	.st19{fill-rule:evenodd;clip-rule:evenodd;fill:#FFFFFF;}
	.st20{fill-rule:evenodd;clip-rule:evenodd;fill:#231F20;}
	.st21{fill:#E60023;}
	.st22{fill-rule:evenodd;clip-rule:evenodd;fill:#E60023;}
	.st23{fill-rule:evenodd;clip-rule:evenodd;fill:#ED2C58;}
	.st24{fill-rule:evenodd;clip-rule:evenodd;fill:#16BCC8;}
	.st25{fill:#5865F2;}
	.st26{fill:url(#SVGID_6_);}
	.st27{fill:url(#SVGID_7_);}
	.st28{fill:url(#SVGID_8_);}
	.st29{fill:#F26F23;}
</style>
<g id="paypal">
	<g>
		<path class="st4" d="M61,2.48c9.11,0,16.52,7.41,16.52,16.52v42c0,9.11-7.41,16.52-16.52,16.52H19C9.89,77.52,2.48,70.11,2.48,61
			V19C2.48,9.89,9.89,2.48,19,2.48H61 M61,0H19C8.51,0,0,8.51,0,19v42c0,10.49,8.51,19,19,19h42c10.49,0,19-8.51,19-19V19
			C80,8.51,71.49,0,61,0L61,0z"/>
	</g>
	<g>
		<path class="st4" d="M50.92,24.43c-1.7-1.94-4.77-2.77-8.7-2.77h-11.4c-0.8,0-1.49,0.58-1.61,1.38l-4.75,30.1
			c-0.09,0.59,0.37,1.13,0.97,1.13h7.04l1.77-11.21l-0.05,0.35c0.13-0.79,0.8-1.38,1.61-1.38h3.34c6.57,0,11.71-2.67,13.22-10.39
			c0.04-0.23,0.12-0.67,0.12-0.67C52.9,28.12,52.47,26.18,50.92,24.43z"/>
		<path class="st5" d="M54.25,32.44c-1.63,7.6-6.85,11.62-15.11,11.62h-3L33.9,58.34h4.86c0.7,0,1.3-0.51,1.41-1.2l0.06-0.3
			l1.12-7.09l0.07-0.39c0.11-0.69,0.71-1.2,1.41-1.2h0.89c5.75,0,10.25-2.33,11.56-9.09C55.81,36.36,55.56,34.08,54.25,32.44z"/>
	</g>
</g>
</svg>
