<?xml version="1.0" encoding="utf-8"?>
<!-- Generator: Adobe Illustrator 25.2.0, SVG Export Plug-In . SVG Version: 6.00 Build 0)  -->
<svg version="1.1" id="Layer_1" xmlns="http://www.w3.org/2000/svg" xmlns:xlink="http://www.w3.org/1999/xlink" x="0px" y="0px"
	 viewBox="0 0 80 80" style="enable-background:new 0 0 80 80;" xml:space="preserve">
<style type="text/css">
	.st0{fill:#008CFF;}
	.st1{fill:white;}
	.st2{fill:#3B5998;}
	.st3{fill:#FFFFFF;}
	.st4{fill:#00447B;}
	.st5{fill:#009CDE;}
	.st6{fill:#231F20;}
	.st7{fill:#ED1D24;}
	.st8{fill:#0077B5;}
	.st9{fill:#3BD75F;}
	.st10{fill:#6441A4;}
	.st11{fill:#0088CC;}
	.st12{fill:url(#SVGID_1_);}
	.st13{fill:url(#SVGID_2_);}
	.st14{fill:url(#SVGID_3_);}
	.st15{fill:url(#SVGID_4_);}
	.st16{fill:url(#SVGID_5_);}
	.st17{fill:#1DA1F2;}
	.st18{fill:#45D354;}
	.st19{fill-rule:evenodd;clip-rule:evenodd;fill:#FFFFFF;}
	.st20{fill-rule:evenodd;clip-rule:evenodd;fill:#231F20;}
	.st21{fill:#E60023;}
	.st22{fill-rule:evenodd;clip-rule:evenodd;fill:#E60023;}
	.st23{fill-rule:evenodd;clip-rule:evenodd;fill:#ED2C58;}
	.st24{fill-rule:evenodd;clip-rule:evenodd;fill:#16BCC8;}
	.st25{fill:#5865F2;}
	.st26{fill:url(#SVGID_6_);}
	.st27{fill:url(#SVGID_7_);}
	.st28{fill:url(#SVGID_8_);}
	.st29{fill:#F26F23;}
</style>
<g id="phone">
	<g>
		<g>
			<path class="st6" d="M61,2.48c9.11,0,16.52,7.41,16.52,16.52v42c0,9.11-7.41,16.52-16.52,16.52H19C9.89,77.52,2.48,70.11,2.48,61
				V19C2.48,9.89,9.89,2.48,19,2.48H61 M61,0H19C8.51,0,0,8.51,0,19v42c0,10.49,8.51,19,19,19h42c10.49,0,19-8.51,19-19V19
				C80,8.51,71.49,0,61,0L61,0z"/>
		</g>
	</g>
	<path class="st6" d="M25.21,16.65c-0.9-1.02-2.47-1.09-3.46-0.15c-0.61,0.59-1.23,1.17-1.84,1.76c-1.06,0.91-2.44,2.36-3.24,4.44
		c-3.58,9.22,7.81,20.95,12.51,25.79c3.95,4.07,18.93,19.49,28.85,14.81c2.72-1.28,4.32-3.72,5.28-5.71c0.94-0.94,0.94-2.46,0-3.39
		l-8.52-8.52c-0.94-0.94-2.46-0.94-3.39,0l-1.42,1.42c-1.89,1.89-4.73,2.4-7.19,1.36C36.96,46,32.66,42.02,30.34,36.09
		c-0.94-2.39-0.34-5.11,1.47-6.93l0.77-0.77c0.91-0.91,0.94-2.37,0.07-3.32C30.17,22.27,27.69,19.46,25.21,16.65z"/>
</g>
</svg>
