<?xml version="1.0" encoding="utf-8"?>
<!-- Generator: Adobe Illustrator 25.2.0, SVG Export Plug-In . SVG Version: 6.00 Build 0)  -->
<svg version="1.1" id="Layer_1" xmlns="http://www.w3.org/2000/svg" xmlns:xlink="http://www.w3.org/1999/xlink" x="0px" y="0px"
	 viewBox="0 0 80 80" style="enable-background:new 0 0 80 80;" xml:space="preserve">
<style type="text/css">
	.st0{fill:#008CFF;}
	.st1{fill:white;}
	.st2{fill:#3B5998;}
	.st3{fill:#FFFFFF;}
	.st4{fill:#00447B;}
	.st5{fill:#009CDE;}
	.st6{fill:#231F20;}
	.st7{fill:#ED1D24;}
	.st8{fill:#0077B5;}
	.st9{fill:#3BD75F;}
	.st10{fill:#6441A4;}
	.st11{fill:#0088CC;}
	.st12{fill:url(#SVGID_1_);}
	.st13{fill:url(#SVGID_2_);}
	.st14{fill:url(#SVGID_3_);}
	.st15{fill:url(#SVGID_4_);}
	.st16{fill:url(#SVGID_5_);}
	.st17{fill:#1DA1F2;}
	.st18{fill:#45D354;}
	.st19{fill-rule:evenodd;clip-rule:evenodd;fill:#FFFFFF;}
	.st20{fill-rule:evenodd;clip-rule:evenodd;fill:#231F20;}
	.st21{fill:#E60023;}
	.st22{fill-rule:evenodd;clip-rule:evenodd;fill:#E60023;}
	.st23{fill-rule:evenodd;clip-rule:evenodd;fill:#ED2C58;}
	.st24{fill-rule:evenodd;clip-rule:evenodd;fill:#16BCC8;}
	.st25{fill:#5865F2;}
	.st26{fill:url(#SVGID_6_);}
	.st27{fill:url(#SVGID_7_);}
	.st28{fill:url(#SVGID_8_);}
	.st29{fill:#F26F23;}
</style>
<g id="soundcloud_1_">
	<g>
		<path class="st6" d="M61,2.48c9.11,0,16.52,7.41,16.52,16.52v42c0,9.11-7.41,16.52-16.52,16.52H19C9.89,77.52,2.48,70.11,2.48,61
			V19C2.48,9.89,9.89,2.48,19,2.48H61 M61,0H19C8.51,0,0,8.51,0,19v42c0,10.49,8.51,19,19,19h42c10.49,0,19-8.51,19-19V19
			C80,8.51,71.49,0,61,0L61,0z"/>
	</g>
	<g>
		<path class="st6" d="M41.2,29.71v21.48c0,0.42,0.34,0.75,0.75,0.75c0,0,19.17,0,19.18,0c1.67,0,3.3-0.7,4.48-1.88
			c1.36-1.36,1.82-3.07,1.9-4.94c0.02-0.49-0.02-0.99-0.1-1.47c-0.21-1.18-0.73-2.29-1.54-3.17c-0.5-0.55-1.11-1.01-1.78-1.35
			c-0.57-0.28-1.17-0.47-1.79-0.59c-0.48-0.09-0.97-0.13-1.46-0.12c-0.64,0.01-1.29,0.09-1.92,0.23c-0.13,0.03-0.27,0.07-0.4,0.11
			c-0.03,0.01-0.37,0.11-0.36,0.13c-0.05-0.67-0.18-1.58-0.5-2.62c-0.76-2.45-2.12-4.02-2.62-4.57c-2.79-3.02-6.23-3.59-7.18-3.72
			c-2.1-0.28-4.3,0.15-6.21,1.03C41.38,29.15,41.2,29.42,41.2,29.71z"/>
		<path class="st6" d="M39.74,51.95H39.7c-0.39,0-0.7-0.3-0.72-0.69l-0.25-5.83c0-0.04,0-0.08,0-0.13l0.26-14.81
			c0.01-0.39,0.33-0.71,0.72-0.71l0,0c0.39,0,0.71,0.31,0.72,0.7l0.49,14.8c0,0.08,0,0.16-0.01,0.23l-0.45,5.77
			C40.43,51.66,40.12,51.95,39.74,51.95z"/>
		<path class="st6" d="M37.51,51.98h-0.05c-0.37,0-0.68-0.29-0.7-0.67l-0.24-5.64c0-0.04,0-0.08,0-0.12l0.26-14.31
			c0.01-0.38,0.32-0.68,0.7-0.68l0,0c0.38,0,0.68,0.3,0.7,0.67l0.47,14.31c0,0.08,0,0.15-0.01,0.23l-0.44,5.58
			C38.18,51.7,37.87,51.98,37.51,51.98z"/>
		<path class="st6" d="M35.19,51.91h-0.04c-0.33,0-0.59-0.26-0.61-0.58l-0.21-4.92c0-0.04,0-0.07,0-0.11l0.22-12.5
			c0.01-0.33,0.28-0.6,0.61-0.6l0,0c0.33,0,0.6,0.26,0.61,0.59l0.41,12.49c0,0.07,0,0.13,0,0.2l-0.38,4.87
			C35.77,51.67,35.51,51.91,35.19,51.91z"/>
		<path class="st6" d="M32.88,52.09h-0.04c-0.34,0-0.61-0.27-0.63-0.6L32,46.4c0-0.04,0-0.07,0-0.11l0.23-12.91
			c0.01-0.34,0.29-0.62,0.63-0.62h0c0.34,0,0.62,0.27,0.63,0.61l0.42,12.9c0,0.07,0,0.14,0,0.2l-0.39,5.03
			C33.48,51.83,33.21,52.09,32.88,52.09z"/>
		<path class="st6" d="M26.21,51.91h0.04c0.33,0,0.59-0.26,0.61-0.58l0.21-4.92c0-0.04,0-0.07,0-0.11l-0.22-12.5
			c-0.01-0.33-0.28-0.6-0.61-0.6l0,0c-0.33,0-0.6,0.26-0.61,0.59l-0.41,12.49c0,0.07,0,0.13,0,0.2l0.38,4.87
			C25.63,51.67,25.89,51.91,26.21,51.91z"/>
		<path class="st6" d="M23.86,51.95h0.03c0.28,0,0.51-0.22,0.52-0.5l0.42-5.84c0-0.03,0-0.06,0-0.09l-0.44-8.99
			c-0.01-0.28-0.24-0.51-0.52-0.51l0,0c-0.28,0-0.51,0.22-0.52,0.5l-0.35,8.94c0,0.06,0,0.11,0,0.17l0.33,5.84
			C23.36,51.74,23.59,51.95,23.86,51.95z"/>
		<path class="st6" d="M21.7,51.88h0.03c0.23,0,0.41-0.18,0.42-0.4l0.34-4.74c0-0.02,0-0.05,0-0.07l-0.35-7.3
			c0-0.23-0.19-0.41-0.42-0.41h0c-0.23,0-0.41,0.18-0.42,0.41l-0.46,6.73c0,0.05,0,0.09,0,0.14l0.44,5.27
			C21.3,51.71,21.48,51.88,21.7,51.88z"/>
		<path class="st6" d="M19.5,51.99h0.03c0.22,0,0.41-0.18,0.42-0.4l0.34-5.9c0-0.02,0-0.05,0-0.07l-0.41-6.02
			c0-0.23-0.19-0.41-0.42-0.41h0c-0.23,0-0.41,0.18-0.42,0.4l-0.41,5.89c0,0.05,0,0.09,0,0.14l0.44,5.99
			C19.1,51.82,19.29,51.99,19.5,51.99z"/>
		<path class="st6" d="M17.22,51.85h0.03c0.22,0,0.4-0.17,0.41-0.39l0.44-6c0-0.02,0-0.05,0-0.07l-0.42-5.58
			c0-0.22-0.19-0.4-0.41-0.4l0,0c-0.22,0-0.4,0.18-0.41,0.4l-0.42,5.61c0,0.04,0,0.09,0,0.13l0.36,5.94
			C16.82,51.68,17,51.85,17.22,51.85z"/>
		<path class="st6" d="M15.12,50.89h0.03c0.22,0,0.4-0.17,0.41-0.39l0.33-4.62c0-0.02,0-0.05,0-0.07l-0.31-5.05
			c0-0.22-0.19-0.4-0.41-0.4h0c-0.22,0-0.4,0.18-0.41,0.4l-0.52,4.8c0,0.04,0,0.09,0,0.13l0.47,4.82
			C14.73,50.72,14.91,50.89,15.12,50.89z"/>
		<path class="st6" d="M13.06,48.91h0.02c0.15,0,0.27-0.11,0.27-0.26l0.22-3.07c0-0.02,0-0.03,0-0.05l-0.21-3.35
			c0-0.15-0.12-0.27-0.27-0.27h0c-0.15,0-0.27,0.12-0.27,0.26l-0.35,3.19c0,0.03,0,0.06,0,0.09l0.31,3.2
			C12.8,48.8,12.92,48.91,13.06,48.91z"/>
		<path class="st6" d="M28.52,52.09h0.04c0.34,0,0.61-0.27,0.63-0.6l0.21-5.09c0-0.04,0-0.07,0-0.11l-0.23-12.91
			c-0.01-0.34-0.29-0.62-0.63-0.62h0c-0.34,0-0.62,0.27-0.63,0.61l-0.42,12.9c0,0.07,0,0.14,0,0.2l0.39,5.03
			C27.92,51.83,28.19,52.09,28.52,52.09z"/>
		<path class="st6" d="M30.54,51.88H30.5c-0.34,0-0.61-0.27-0.63-0.6l-0.21-5.09c0-0.04,0-0.07,0-0.11l0.23-12.91
			c0.01-0.34,0.29-0.62,0.63-0.62l0,0c0.34,0,0.62,0.27,0.63,0.61l0.42,12.9c0,0.07,0,0.14,0,0.2l-0.39,5.03
			C31.14,51.63,30.87,51.88,30.54,51.88z"/>
	</g>
</g>
</svg>
