<?xml version="1.0" encoding="utf-8"?>
<!-- Generator: Adobe Illustrator 25.2.0, SVG Export Plug-In . SVG Version: 6.00 Build 0)  -->
<svg version="1.1" id="Layer_1" xmlns="http://www.w3.org/2000/svg" xmlns:xlink="http://www.w3.org/1999/xlink" x="0px" y="0px"
	 viewBox="0 0 80 80" style="enable-background:new 0 0 80 80;" xml:space="preserve">
<style type="text/css">
	.st0{fill:#008CFF;}
	.st1{fill:white;}
	.st2{fill:#3B5998;}
	.st3{fill:#FFFFFF;}
	.st4{fill:#00447B;}
	.st5{fill:#009CDE;}
	.st6{fill:#231F20;}
	.st7{fill:#ED1D24;}
	.st8{fill:#0077B5;}
	.st9{fill:#3BD75F;}
	.st10{fill:#6441A4;}
	.st11{fill:#0088CC;}
	.st12{fill:url(#SVGID_1_);}
	.st13{fill:url(#SVGID_2_);}
	.st14{fill:url(#SVGID_3_);}
	.st15{fill:url(#SVGID_4_);}
	.st16{fill:url(#SVGID_5_);}
	.st17{fill:#1DA1F2;}
	.st18{fill:#45D354;}
	.st19{fill-rule:evenodd;clip-rule:evenodd;fill:#FFFFFF;}
	.st20{fill-rule:evenodd;clip-rule:evenodd;fill:#231F20;}
	.st21{fill:#E60023;}
	.st22{fill-rule:evenodd;clip-rule:evenodd;fill:#E60023;}
	.st23{fill-rule:evenodd;clip-rule:evenodd;fill:#ED2C58;}
	.st24{fill-rule:evenodd;clip-rule:evenodd;fill:#16BCC8;}
	.st25{fill:#5865F2;}
	.st26{fill:url(#SVGID_6_);}
	.st27{fill:url(#SVGID_7_);}
	.st28{fill:url(#SVGID_8_);}
	.st29{fill:#F26F23;}
</style>
<g id="tik_tok_3_">
	<path class="st6" d="M61,80H19C8.51,80,0,71.49,0,61V19C0,8.51,8.51,0,19,0h42c10.49,0,19,8.51,19,19v42C80,71.49,71.49,80,61,80z"
		/>
	<g>
		<path class="st23" d="M50.48,33.17c3.17,2.27,7.06,3.6,11.25,3.6V28.7c-0.79,0-1.59-0.08-2.36-0.25v6.35
			c-4.2,0-8.08-1.33-11.25-3.6v16.47c0,8.24-6.68,14.92-14.93,14.92c-3.08,0-5.93-0.93-8.31-2.52c2.71,2.77,6.49,4.49,10.67,4.49
			c8.24,0,14.93-6.68,14.93-14.92L50.48,33.17L50.48,33.17z M53.4,25.03c-1.62-1.77-2.68-4.06-2.92-6.59V17.4h-2.24
			C48.81,20.62,50.73,23.36,53.4,25.03L53.4,25.03z M30.1,53.75c-0.91-1.19-1.4-2.64-1.39-4.13c0-3.77,3.06-6.82,6.83-6.82
			c0.7,0,1.4,0.11,2.07,0.32v-8.25c-0.78-0.11-1.57-0.15-2.36-0.14v6.42c-0.67-0.21-1.37-0.32-2.07-0.32
			c-3.77,0-6.83,3.06-6.83,6.82C26.34,50.32,27.87,52.63,30.1,53.75z"/>
		<path class="st19" d="M48.12,31.21c3.17,2.27,7.06,3.6,11.25,3.6v-6.35c-2.34-0.5-4.42-1.72-5.98-3.42
			c-2.67-1.66-4.59-4.41-5.16-7.62h-5.88v32.24c-0.01,3.76-3.07,6.8-6.83,6.8c-2.22,0-4.19-1.06-5.44-2.69
			c-2.23-1.12-3.76-3.43-3.76-6.1c0-3.77,3.06-6.82,6.83-6.82c0.72,0,1.42,0.11,2.07,0.32v-6.42c-8.1,0.17-14.61,6.78-14.61,14.92
			c0,4.06,1.62,7.74,4.25,10.43c2.37,1.59,5.23,2.52,8.31,2.52c8.24,0,14.93-6.68,14.93-14.92V31.21z"/>
		<path class="st24" d="M59.37,28.45v-1.72c-2.11,0-4.18-0.59-5.98-1.71C54.98,26.76,57.07,27.96,59.37,28.45z M48.24,17.4
			c-0.05-0.31-0.1-0.62-0.12-0.93v-1.04H40v32.24c-0.01,3.76-3.06,6.8-6.83,6.8c-1.11,0-2.15-0.26-3.07-0.73
			c1.25,1.64,3.22,2.69,5.44,2.69c3.76,0,6.81-3.04,6.83-6.8V17.4H48.24z M35.24,34.73V32.9c-0.68-0.09-1.36-0.14-2.05-0.14
			c-8.24,0-14.93,6.68-14.93,14.92c0,5.17,2.63,9.72,6.62,12.4c-2.63-2.69-4.25-6.37-4.25-10.43
			C20.63,41.51,27.14,34.89,35.24,34.73L35.24,34.73z"/>
	</g>
</g>
</svg>
