<?xml version="1.0" encoding="utf-8"?>
<!-- Generator: Adobe Illustrator 25.2.0, SVG Export Plug-In . SVG Version: 6.00 Build 0)  -->
<svg version="1.1" id="Layer_1" xmlns="http://www.w3.org/2000/svg" xmlns:xlink="http://www.w3.org/1999/xlink" x="0px" y="0px"
	 viewBox="0 0 80 80" style="enable-background:new 0 0 80 80;" xml:space="preserve">
<style type="text/css">
	.st0{fill:#008CFF;}
	.st1{fill:#00D632;}
	.st2{fill:#3B5998;}
	.st3{fill:#FFFFFF;}
	.st4{fill:#00447B;}
	.st5{fill:#009CDE;}
	.st6{fill:#231F20;}
	.st7{fill:#ED1D24;}
	.st8{fill:#0077B5;}
	.st9{fill:#3BD75F;}
	.st10{fill:#6441A4;}
	.st11{fill:#0088CC;}
	.st12{fill:url(#SVGID_1_);}
	.st13{fill:url(#SVGID_2_);}
	.st14{fill:url(#SVGID_3_);}
	.st15{fill:url(#SVGID_4_);}
	.st16{fill:url(#SVGID_5_);}
	.st17{fill:#1DA1F2;}
	.st18{fill:#45D354;}
	.st19{fill-rule:evenodd;clip-rule:evenodd;fill:#FFFFFF;}
	.st20{fill-rule:evenodd;clip-rule:evenodd;fill:#231F20;}
	.st21{fill:#E60023;}
	.st22{fill-rule:evenodd;clip-rule:evenodd;fill:#E60023;}
	.st23{fill-rule:evenodd;clip-rule:evenodd;fill:#ED2C58;}
	.st24{fill-rule:evenodd;clip-rule:evenodd;fill:#16BCC8;}
	.st25{fill:#5865F2;}
	.st26{fill:url(#SVGID_6_);}
	.st27{fill:url(#SVGID_7_);}
	.st28{fill:url(#SVGID_8_);}
	.st29{fill:#F26F23;}
</style>
<g id="zoom_1_">
	<path class="st0" d="M61,80H19C8.51,80,0,71.49,0,61V19C0,8.51,8.51,0,19,0h42c10.49,0,19,8.51,19,19v42C80,71.49,71.49,80,61,80z"
		/>
	<g>
		<path class="st3" d="M10.63,33.49H21.2c1.03,0,1.87,0.84,1.87,1.87v0.69l-7.86,7.9h6.46c1.16,0,2.1,0.94,2.1,2.1v0.57h-9.69
			c-1.47,0-2.67-1.19-2.67-2.67v0l7.81-7.84h-5.98C11.8,36.1,10.63,34.93,10.63,33.49L10.63,33.49z"/>
		<g>
			<path class="st3" d="M29.69,46.57c-3.59,0-6.52-2.92-6.52-6.52c0-3.59,2.92-6.52,6.52-6.52c3.59,0,6.52,2.92,6.52,6.52
				C36.21,43.64,33.28,46.57,29.69,46.57z M29.69,35.96c-2.25,0-4.09,1.83-4.09,4.09c0,2.25,1.83,4.09,4.09,4.09
				s4.09-1.83,4.09-4.09C33.77,37.8,31.94,35.96,29.69,35.96z"/>
		</g>
		<g>
			<path class="st3" d="M43.56,46.57c-3.59,0-6.52-2.92-6.52-6.52c0-3.59,2.92-6.52,6.52-6.52c3.59,0,6.52,2.92,6.52,6.52
				C50.08,43.64,47.15,46.57,43.56,46.57z M43.56,35.96c-2.25,0-4.09,1.83-4.09,4.09c0,2.25,1.83,4.09,4.09,4.09
				c2.25,0,4.09-1.83,4.09-4.09C47.65,37.8,45.81,35.96,43.56,35.96z"/>
		</g>
		<path class="st3" d="M50.8,33.43l0,13.18h0.52c1.14,0,2.06-0.92,2.06-2.06v-5.81c0-1.48,1.2-2.69,2.69-2.69h0
			c1.48,0,2.69,1.2,2.69,2.69v5.56c0,1.28,1.04,2.32,2.32,2.32h0.39V38.6c0-1.41,1.14-2.55,2.55-2.55h0c1.41,0,2.55,1.14,2.55,2.55
			v5.78c0,1.17,0.95,2.12,2.12,2.12h0.62l0.06-7.67c0.03-3.85-3.95-6.49-7.45-4.88c-0.65,0.3-1.28,0.73-1.87,1.3
			c-2.42-2.27-4.66-2.35-6.77-0.85C52.52,33.81,51.69,33.5,50.8,33.43z"/>
	</g>
</g>
</svg>
